<svg xmlns="http://www.w3.org/2000/svg" width="1280" height="1280"><path d="M593 19.51C455.621 30.635 331.05 83.297 228.5 173.601 138.876 252.523 74.352 354.982 40.995 471.344 18.833 548.653 12.374 637.857 22.99 719.986c22.143 171.3 114.783 325.689 256.01 426.65 127.22 90.949 284.75 130.389 440.871 110.381 170.977-21.913 325.808-114.796 426.765-256.017 90.949-127.22 130.389-284.75 110.381-440.871-21.915-170.993-114.783-325.798-256.017-426.765C918.104 74.102 821.321 36.089 719.986 22.99c-38.315-4.953-90.98-6.396-126.986-3.48M397.409 211.38c-70.181 39.778-129.455 96.133-173.15 164.62C216.295 388.482 203 411.763 203 413.227c0 .425 69.75.773 155 .773h155v350.893c0 317.953.147 350.95 1.57 351.496.864.331 7.276 1.916 14.25 3.522 72.352 16.659 151.273 16.613 222.68-.129 7.15-1.676 14.013-3.265 15.25-3.531l2.25-.484V414h154c84.7 0 154-.348 154-.773 0-1.464-13.295-24.745-21.259-37.227-43.695-68.487-102.969-124.842-173.15-164.62L869.57 204H410.43l-13.021 7.38m230.463 75.37l-11.563 35.75-38.33.5-38.329.5 28.925 20.91c15.909 11.501 29.754 21.68 30.768 22.621 1.781 1.653 1.451 2.922-9.74 37.516-6.371 19.694-11.441 35.948-11.268 36.122.174.173 13.917-9.581 30.54-21.677C625.499 406.896 639.505 397 640 397c.495 0 14.501 9.896 31.125 21.992 16.623 12.096 30.367 21.849 30.542 21.674.175-.174-4.854-16.258-11.174-35.742-6.321-19.483-11.322-35.882-11.113-36.441.208-.56 14.019-10.91 30.691-23l30.312-21.983-38.346-.5-38.346-.5-11.563-35.75C645.768 267.087 640.31 251 640 251c-.31 0-5.768 16.087-12.128 35.75" fill="undefined" fill-rule="evenodd"/></svg>